#define _width 30
#define _height 12
static char _bits[] = {
  0x18, 0x00, 0x00, 0x00, 0x78, 0x00, 0x00, 0x00, 0xFC, 0x03, 0x00, 0x10, 
  0xFC, 0x00, 0x00, 0x38, 0x7E, 0x00, 0x00, 0x3C, 0xFE, 0x00, 0x00, 0x1E, 
  0xE2, 0x00, 0x00, 0x0C, 0x40, 0x00, 0x00, 0x00, 0x00, 0x3C, 0x70, 0x00, 
  0x00, 0x7C, 0xFC, 0x00, 0x00, 0x78, 0x7C, 0x00, 0x00, 0x20, 0x00, 0x00, 
  };
