#define _width 32
#define _height 14
static char _bits[] = {
  0x00, 0x00, 0x00, 0x00, 0x00, 0x00, 0x00, 0x00, 0x00, 0x00, 0x00, 0x18, 
  0x00, 0x00, 0x00, 0x1E, 0x08, 0x00, 0xC0, 0x3F, 0x1C, 0x00, 0x00, 0x3F, 
  0x3C, 0x00, 0x00, 0x7E, 0x78, 0x00, 0x00, 0x7F, 0x30, 0x00, 0x00, 0x47, 
  0x00, 0x00, 0x00, 0x00, 0x00, 0x0F, 0x3C, 0x00, 0x00, 0x3E, 0x3E, 0x00, 
  0x00, 0x3E, 0x1E, 0x00, 0x00, 0x00, 0x06, 0x00, };
